Coordinates
version=1
nRows=12
nColumns=34
inDegrees=no

Units are S.I. units (second, meters, Newtons, ...)
If the header above contains a line with 'inDegrees', this indicates whether rotational values are in degrees (yes) or radians (no).

endheader
time	pelvis_tilt	pelvis_list	pelvis_rotation	pelvis_tx	pelvis_ty	pelvis_tz	hip_flexion_r	hip_adduction_r	hip_rotation_r	knee_angle_r	ankle_angle_r	subtalar_angle_r	mtp_angle_r	hip_flexion_l	hip_adduction_l	hip_rotation_l	knee_angle_l	ankle_angle_l	subtalar_angle_l	mtp_angle_l	lumbar_extension	lumbar_bending	lumbar_rotation	arm_flex_r	arm_add_r	arm_rot_r	elbow_flex_r	pro_sup_r	arm_flex_l	arm_add_l	arm_rot_l	elbow_flex_l	pro_sup_l
0	0.0454094	-0.00702357	0.143125	-0.112498	0.89656	-0.248598	0.478881	-0.103848	-0.324802	0.25277	0.12289	0.155325	-0.0192084	-0.302627	-0.0901683	-0.301143	0.325587	0.536591	0.541876	-0.0192093	-0.234383	0.0801354	-0.196646	-0.0623675	-0.25208	0.107116	0.531374	1.71006	0.115768	-0.277669	0.107007	0.894842	1.7425
0.01	0.04767	-0.0231873	0.140823	-0.0978667	0.900125	-0.248243	0.481707	-0.0860829	-0.308105	0.278178	0.0791558	0.111688	-0.019201	-0.316106	-0.107783	-0.288962	0.33521	0.529088	0.52058	-0.0192019	-0.233936	0.10935	-0.195261	-0.063445	-0.254721	0.0983101	0.530121	1.70418	0.10358	-0.266348	0.0978436	0.884028	1.74638
0.02	0.0497615	-0.0389947	0.138124	-0.0833814	0.903238	-0.247797	0.484197	-0.0682102	-0.291869	0.303968	0.0425318	0.0701457	-0.0191936	-0.326477	-0.124835	-0.275791	0.349211	0.516155	0.496097	-0.0191945	-0.233762	0.137818	-0.193549	-0.0637161	-0.257493	0.0908407	0.528396	1.699	0.0920879	-0.254989	0.0898909	0.870869	1.7501
0.03	0.0516674	-0.0544247	0.135041	-0.0690583	0.905949	-0.247264	0.486334	-0.0502517	-0.276119	0.330066	0.0130068	0.0307531	-0.0191862	-0.333681	-0.141313	-0.261648	0.367638	0.497773	0.468458	-0.0191871	-0.233844	0.165501	-0.191529	-0.0631668	-0.260382	0.0847183	0.526181	1.69453	0.0812945	-0.243621	0.0831879	0.855376	1.75364
0.04	0.0533358	-0.0694102	0.131618	-0.054914	0.908309	-0.246645	0.488074	-0.0322833	-0.260941	0.356254	-0.00948228	-0.00633888	-0.0191787	-0.337545	-0.15719	-0.24659	0.390623	0.473899	0.437769	-0.0191797	-0.234115	0.192284	-0.189269	-0.0617603	-0.263342	0.0799689	0.523435	1.69079	0.0712029	-0.232337	0.0778578	0.837598	1.75696
0.05	0.054669	-0.0838265	0.127947	-0.0409672	0.910368	-0.245941	0.489348	-0.0144589	-0.246498	0.382139	-0.0251073	-0.0408776	-0.0191713	-0.337764	-0.172416	-0.230717	0.418362	0.44449	0.40424	-0.0191722	-0.234445	0.21795	-0.186908	-0.0594391	-0.266289	0.0766253	0.520089	1.68779	0.0618141	-0.221317	0.0741298	0.817656	1.75996
0.06	0.0555308	-0.0975005	0.12418	-0.0272392	0.912172	-0.245152	0.490072	0.00298582	-0.233024	0.407178	-0.0341986	-0.0725444	-0.0191639	-0.33393	-0.186921	-0.214169	0.451059	0.40955	0.368189	-0.0191648	-0.234636	0.242198	-0.184654	-0.0561398	-0.269093	0.0747057	0.51607	1.68554	0.0531227	-0.210825	0.0723266	0.795781	1.76255
0.07	0.0557689	-0.110236	0.120518	-0.0137524	0.91376	-0.244277	0.490156	0.019758	-0.220791	0.430744	-0.0372681	-0.101014	-0.0191564	-0.325619	-0.200632	-0.197118	0.488836	0.369197	0.330011	-0.0191574	-0.234451	0.264676	-0.182763	-0.0518155	-0.271598	0.0741867	0.511341	1.68403	0.0451126	-0.201182	0.0728128	0.772338	1.76465
0.08	0.0552462	-0.121846	0.117175	-0.000530115	0.915171	-0.243314	0.489513	0.0355498	-0.210055	0.452214	-0.0350046	-0.126022	-0.019149	-0.31248	-0.213477	-0.179761	0.531639	0.323746	0.290123	-0.01915	-0.233654	0.285038	-0.181483	-0.0464612	-0.273641	0.0749784	0.50594	1.68323	0.037754	-0.192722	0.0759115	0.747833	1.76621
0.09	0.0538641	-0.132167	0.11434	0.0124057	0.91644	-0.242264	0.488076	0.0500805	-0.200988	0.471059	-0.0282404	-0.147413	-0.0191416	-0.294333	-0.225375	-0.162316	0.579163	0.273793	0.248904	-0.0191426	-0.232059	0.302985	-0.180999	-0.0401355	-0.27508	0.0769096	0.500026	1.68309	0.0309999	-0.185736	0.0818083	0.722903	1.76731
0.1	0.0515735	-0.141078	0.112132	0.0250354	0.9176	-0.24113	0.485804	0.0631295	-0.193632	0.486912	-0.0178978	-0.165156	-0.0191342	-0.271234	-0.23622	-0.145018	0.630813	0.220295	0.206637	-0.0191352	-0.22957	0.318297	-0.181375	-0.032973	-0.275819	0.0797295	0.493896	1.68354	0.0247842	-0.180418	0.0904641	0.698279	1.76814
0.11	0.0483917	-0.148505	0.110573	0.0373452	0.918684	-0.239914	0.482675	0.0745548	-0.187874	0.499595	-0.00492511	-0.179345	-0.0191267	-0.243508	-0.245872	-0.128123	0.685709	0.164607	0.163496	-0.0191278	-0.226209	0.330836	-0.182525	-0.0251826	-0.275824	0.0831279	0.487986	1.68447	0.0190211	-0.176837	0.101563	0.674729	1.76899
